# xmcd
#
# Track frame offsets:
#	150
#	13012
#	28274
#	42561
#	53964
#	64743
#	80653
#	114954
#	129500
#	140134
#	170265
#	184858
#	199578
#	215176
#	222539
#	235565
#	250695
#	265194
#	272848
#	283392
#
# Disc length: 3862 seconds
#
# Revision: 1
# Processed by: cddbd v1.5.2PL0 Copyright (c) Steve Scherf et al.
# Submitted via: audiograbber 1.83.01
#
DISCID=3c0f1414
DTITLE=Various Artist - Schaurige Moritaten - CD3
DYEAR=2008
DGENRE=Folk
TTITLE0=Claire Waldoff - Fritze Bollmann
TTITLE1=Renate Nielsen - Mariechen saß weinend im Garten 
TTITLE2=Friedel Hensch und die Cyprys - Das alte Försterhaus 
TTITLE3=Helmuth Peine - Zieht im Herbst die Lerche fort 
TTITLE4=Renate Nielsen - O bleib bei mir 
TTITLE5=Isarspatzen - Am Waldesrand 
TTITLE6=Ernst Becker - Vom Taualtar zur Totengruft
TTITLE7=Rodgers Duo - Der Wilddieb 
TTITLE8=Ludwig Linkmann - Der Fremdenlegionär 
TTITLE9=Erst Becker - Das erwachte Gewissen 
TTITLE10=Edith Schollwer - Wanderlied einer Hausfrau 
TTITLE11=Claire Waldoff - Wer schmeißt denn da mit Lehm 
TTITLE12=Die sindenden Hausfrauen - Das Elterngrab
TTITLE13=Jens Hansen - Ich habe den Frühling gesehen 
TTITLE14=Peter Oldenburg and Marion Lindt - Eine Heldin wohlgezogenen 
TTITLE15=Hilde Sicks and Jens Hansen - Bleich flimmert in stürmischer Nacht 
TTITLE16=Edith Schollwer - Ach Jott, wat sind die Männer dumm
TTITLE17=Heinz Reincke - Wer das Lieben hat erfunden
TTITLE18=Alfons Bauer - Der stille Waldweg
TTITLE19=Die Küchenmädchen - Muß ich mit getäuschet wissen 
EXTD=60 ergreifende deutsche Lieder
EXTT0=
EXTT1=
EXTT2=
EXTT3=
EXTT4=
EXTT5=
EXTT6=
EXTT7=
EXTT8=
EXTT9=
EXTT10=
EXTT11=
EXTT12=
EXTT13=
EXTT14=
EXTT15=
EXTT16=
EXTT17=
EXTT18=
EXTT19=
PLAYORDER=
